<?xml version="1.0" encoding="UTF-8"?>
<!DOCTYPE svg PUBLIC "-//W3C//DTD SVG 1.1//EN" "http://www.w3.org/Graphics/SVG/1.1/DTD/svg11.dtd">
<svg xmlns="http://www.w3.org/2000/svg" version="1.1" width="949px" height="477px" style="shape-rendering:geometricPrecision; text-rendering:geometricPrecision; image-rendering:optimizeQuality; fill-rule:evenodd; clip-rule:evenodd" xmlns:xlink="http://www.w3.org/1999/xlink">
<g><path style="opacity:0.967" fill="#fefefe" d="M 417.5,50.5 C 436.873,48.8985 453.207,55.0651 466.5,69C 438.348,98.3191 409.681,127.152 380.5,155.5C 362.748,139.393 357.248,119.727 364,96.5C 366.221,90.3898 369.221,84.7231 373,79.5C 378.833,73.6667 384.667,67.8333 390.5,62C 398.655,55.9152 407.655,52.0819 417.5,50.5 Z"/></g>
<g><path style="opacity:0.978" fill="#fefefe" d="M 506.5,50.5 C 521.97,49.1592 535.97,52.9926 548.5,62C 554.333,67.8333 560.167,73.6667 566,79.5C 581.333,102.5 581.333,125.5 566,148.5C 529.472,185.361 492.639,221.861 455.5,258C 433.702,269.899 412.368,269.232 391.5,256C 385,249.5 378.5,243 372,236.5C 357.722,213.586 358.055,190.919 373,168.5C 408.167,133.333 443.333,98.1667 478.5,63C 486.828,56.398 496.162,52.2314 506.5,50.5 Z M 461.5,113.5 C 493.397,113.565 511.397,129.399 515.5,161C 510.596,195.284 490.93,210.617 456.5,207C 437.129,201.629 425.296,189.129 421,169.5C 418.95,139.407 432.45,120.741 461.5,113.5 Z M 461.5,131.5 C 469.51,133.952 470.843,138.119 465.5,144C 458.667,145.167 455.833,142.333 457,135.5C 458.25,133.807 459.75,132.473 461.5,131.5 Z M 442.5,152.5 C 449.529,153.353 451.696,157.02 449,163.5C 443.169,166.671 439.336,165.005 437.5,158.5C 438.465,155.872 440.132,153.872 442.5,152.5 Z M 488.5,156.5 C 493.115,156.283 495.782,158.45 496.5,163C 494.144,169.611 490.311,170.778 485,166.5C 482.487,161.886 483.654,158.553 488.5,156.5 Z M 468.5,177.5 C 475.665,176.497 478.498,179.497 477,186.5C 473.52,191.452 469.853,191.452 466,186.5C 464.927,182.9 465.76,179.9 468.5,177.5 Z"/></g>
<g><path style="opacity:0.961" fill="#fefefe" d="M 461.5,117.5 C 486.648,116.164 502.815,127.497 510,151.5C 513.387,175.125 504.22,191.959 482.5,202C 453.848,208.594 434.682,198.094 425,170.5C 421.836,142.136 434.002,124.47 461.5,117.5 Z M 461.5,131.5 C 459.75,132.473 458.25,133.807 457,135.5C 455.833,142.333 458.667,145.167 465.5,144C 470.843,138.119 469.51,133.952 461.5,131.5 Z M 442.5,152.5 C 440.132,153.872 438.465,155.872 437.5,158.5C 439.336,165.005 443.169,166.671 449,163.5C 451.696,157.02 449.529,153.353 442.5,152.5 Z M 488.5,156.5 C 483.654,158.553 482.487,161.886 485,166.5C 490.311,170.778 494.144,169.611 496.5,163C 495.782,158.45 493.115,156.283 488.5,156.5 Z M 468.5,177.5 C 465.76,179.9 464.927,182.9 466,186.5C 469.853,191.452 473.52,191.452 477,186.5C 478.498,179.497 475.665,176.497 468.5,177.5 Z"/></g>
<g><path style="opacity:0.981" fill="#fefefe" d="M 558.5,161.5 C 576.784,178.718 581.95,199.385 574,223.5C 571.921,227.993 569.588,232.326 567,236.5C 560.5,243 554,249.5 547.5,256C 524.586,270.284 501.919,269.951 479.5,255C 477.167,252.667 474.833,250.333 472.5,248C 501.368,219.299 530.035,190.465 558.5,161.5 Z"/></g>
<g><path style="opacity:0.948" fill="#fefefe" d="M 608.5,244.5 C 703.833,244.5 799.167,244.5 894.5,244.5C 894.5,251.167 894.5,257.833 894.5,264.5C 799.167,264.5 703.833,264.5 608.5,264.5C 608.5,257.833 608.5,251.167 608.5,244.5 Z"/></g>
<g><path style="opacity:0.949" fill="#fefefe" d="M 44.5,246.5 C 139.833,246.5 235.167,246.5 330.5,246.5C 330.5,253.167 330.5,259.833 330.5,266.5C 235.167,266.5 139.833,266.5 44.5,266.5C 44.5,259.833 44.5,253.167 44.5,246.5 Z"/></g>
<g><path style="opacity:0.963" fill="#fefefe" d="M 425.5,314.5 C 435.167,314.5 444.833,314.5 454.5,314.5C 454.333,340.502 454.5,366.502 455,392.5C 455.333,395.5 457,397.167 460,397.5C 460.667,405.167 460.667,412.833 460,420.5C 452.112,423.307 444.278,423.141 436.5,420C 433.569,417.738 431.403,414.905 430,411.5C 423.97,419.178 415.97,422.845 406,422.5C 387.081,421.581 375.415,411.915 371,393.5C 367.125,375.483 371.958,360.317 385.5,348C 399.538,340.038 412.705,341.205 425,351.5C 425.5,339.171 425.667,326.838 425.5,314.5 Z M 410.5,366.5 C 418.001,366.829 423.168,370.496 426,377.5C 429.459,389.27 425.292,396.27 413.5,398.5C 404.509,397.339 399.843,392.172 399.5,383C 400.079,375.318 403.745,369.818 410.5,366.5 Z"/></g>
<g><path style="opacity:0.965" fill="#fefefe" d="M 166.5,317.5 C 177.172,317.333 187.839,317.5 198.5,318C 205.538,333.243 212.705,348.409 220,363.5C 227.311,348.378 234.478,333.212 241.5,318C 252.161,317.5 262.828,317.333 273.5,317.5C 273.5,351.833 273.5,386.167 273.5,420.5C 263.5,420.5 253.5,420.5 243.5,420.5C 243.667,404.163 243.5,387.83 243,371.5C 238.441,382.286 233.607,392.952 228.5,403.5C 222.612,404.807 216.779,404.807 211,403.5C 206,392.5 201,381.5 196,370.5C 195.5,387.163 195.333,403.83 195.5,420.5C 185.833,420.5 176.167,420.5 166.5,420.5C 166.5,386.167 166.5,351.833 166.5,317.5 Z"/></g>
<g><path style="opacity:0.961" fill="#fefefe" d="M 320.5,342.5 C 352.205,342.369 367.372,358.036 366,389.5C 348.391,391.149 330.558,392.149 312.5,392.5C 315.974,400.402 321.974,403.235 330.5,401C 333.943,399.382 336.943,397.215 339.5,394.5C 347.143,396.66 354.809,398.66 362.5,400.5C 356.246,413.212 345.913,420.379 331.5,422C 302.351,424.989 285.685,412.156 281.5,383.5C 283.345,358.993 296.345,345.326 320.5,342.5 Z M 319.5,363.5 C 327.794,362.305 333.127,365.638 335.5,373.5C 327.862,374.497 320.196,374.831 312.5,374.5C 312.813,369.526 315.146,365.859 319.5,363.5 Z"/></g>
<g><path style="opacity:0.957" fill="#fefefe" d="M 504.5,342.5 C 522.303,341.401 535.97,348.235 545.5,363C 545.095,363.945 544.428,364.612 543.5,365C 535.333,367.5 527.167,370 519,372.5C 509.118,363.792 501.452,365.458 496,377.5C 493.813,386.98 496.979,393.813 505.5,398C 510.989,398.923 515.322,397.09 518.5,392.5C 527.394,395.576 536.394,398.243 545.5,400.5C 542.446,409.389 536.446,415.556 527.5,419C 511.547,424.575 496.213,423.242 481.5,415C 463.417,397.908 460.917,378.741 474,357.5C 482.213,348.31 492.379,343.31 504.5,342.5 Z"/></g>
<g><path style="opacity:0.958" fill="#fefefe" d="M 582.5,342.5 C 595.673,341.415 607.506,344.749 618,352.5C 621.673,356.847 624.006,361.847 625,367.5C 625.333,376.167 625.667,384.833 626,393.5C 626.589,395.863 628.089,396.863 630.5,396.5C 630.5,404.833 630.5,413.167 630.5,421.5C 623.452,422.884 616.452,422.718 609.5,421C 604.948,419.412 602.115,416.245 601,411.5C 588.689,423.347 574.856,425.513 559.5,418C 545.228,405.067 544.894,391.734 558.5,378C 568.673,371.925 579.673,369.925 591.5,372C 596.799,374.008 597.966,372.175 595,366.5C 593.786,364.951 592.286,363.785 590.5,363C 579.735,361.274 570.069,363.774 561.5,370.5C 557.737,365.312 554.737,359.645 552.5,353.5C 557.295,349.103 562.961,346.269 569.5,345C 573.988,344.24 578.322,343.406 582.5,342.5 Z M 585.5,386.5 C 589.167,387.167 592.833,387.833 596.5,388.5C 598.182,394.961 595.849,399.128 589.5,401C 584.848,402.193 580.681,401.36 577,398.5C 575.787,391.556 578.621,387.556 585.5,386.5 Z"/></g>
<g><path style="opacity:0.963" fill="#fefefe" d="M 685.5,342.5 C 687.792,342.244 689.959,342.577 692,343.5C 692.5,351.827 692.666,360.16 692.5,368.5C 683.975,368.035 676.141,370.035 669,374.5C 668.5,389.83 668.333,405.163 668.5,420.5C 658.833,420.5 649.167,420.5 639.5,420.5C 639.5,395.167 639.5,369.833 639.5,344.5C 648.167,344.5 656.833,344.5 665.5,344.5C 665.335,348.182 665.501,351.848 666,355.5C 670.83,348.477 677.33,344.143 685.5,342.5 Z"/></g>
<g><path style="opacity:0.961" fill="#fefefe" d="M 733.5,342.5 C 765.205,342.369 780.372,358.036 779,389.5C 761.391,391.149 743.558,392.149 725.5,392.5C 728.974,400.402 734.974,403.235 743.5,401C 746.943,399.382 749.943,397.215 752.5,394.5C 760.143,396.66 767.809,398.66 775.5,400.5C 769.246,413.212 758.913,420.379 744.5,422C 715.351,424.989 698.685,412.156 694.5,383.5C 696.345,358.993 709.345,345.326 733.5,342.5 Z M 732.5,363.5 C 740.794,362.305 746.127,365.638 748.5,373.5C 740.862,374.497 733.196,374.831 725.5,374.5C 725.813,369.526 728.146,365.859 732.5,363.5 Z"/></g>
</svg>
